<?xml version="1.0" encoding="utf-8"?>
<!-- Generator: Adobe Illustrator 24.2.0, SVG Export Plug-In . SVG Version: 6.00 Build 0)  -->
<svg version="1.1" id="Layer_2" xmlns="http://www.w3.org/2000/svg" xmlns:xlink="http://www.w3.org/1999/xlink" x="0px" y="0px"
	 viewBox="0 0 784.3 242" style="enable-background:new 0 0 784.3 242;" xml:space="preserve">
<style type="text/css">
	.st0{fill:#FF5F00;}
	.st1{fill:#FF8300;}
	.st2{fill:#FFFFFF;}
</style>
<g>
	<circle class="st0" cx="121.6" cy="120.7" r="53.1"/>
	<polygon class="st0" points="121.6,53.5 145.7,29.3 145.7,0.3 97.5,0.3 97.5,29.3 	"/>
	<polygon class="st1" points="88,62.5 96.8,29.5 82.3,4.3 40.5,28.5 55,53.6 	"/>
	<polygon class="st0" points="63.3,87.1 54.5,54.1 29.3,39.6 5.2,81.4 30.4,95.9 	"/>
	<polygon class="st1" points="54.3,120.7 30.2,96.6 1.1,96.6 1.1,144.8 30.2,144.8 	"/>
	<polygon class="st0" points="63.3,154.3 30.4,145.5 5.2,160 29.3,201.8 54.5,187.3 	"/>
	<polygon class="st1" points="87.9,179 55,187.8 40.4,213 82.2,237.1 96.8,211.9 	"/>
	<polygon class="st0" points="121.6,188 97.4,212.1 97.4,241.2 145.7,241.2 145.7,212.1 	"/>
	<polygon class="st1" points="155.2,179 146.4,211.9 160.9,237.1 202.7,213 188.2,187.8 	"/>
	<polygon class="st0" points="179.8,154.4 188.6,187.3 213.8,201.9 238,160.1 212.8,145.5 	"/>
	<polygon class="st1" points="188.8,120.7 213,144.9 242,144.9 242,96.6 213,96.6 	"/>
	<polygon class="st0" points="179.8,87.1 212.8,95.9 238,81.4 213.8,39.6 188.7,54.1 	"/>
	<polygon class="st1" points="155.2,62.5 188.2,53.7 202.7,28.5 160.9,4.3 146.4,29.5 	"/>
</g>
<g>
	<path class="st2" d="M325.5,29c21.1,0,31.7,10.4,31.7,10.4L347,58.2c0,0-7.4-7.4-19.6-7.4c-15.3,0-21.4,9.3-21.4,19.9
		c0,12.4,8.2,21.3,20.6,21.3c7.6,0,13.6-4,14.3-5v-3.6h-10.4V65.8h30.7v46h-19.6v-3.5c0-1.3,0.1-2.4,0.2-2.6h-0.5
		c-1,1.4-7.5,7.5-20.6,7.5c-22.1,0-40.2-16.5-40.2-41.9C280.8,47.4,298.4,29,325.5,29z"/>
	<path class="st2" d="M462,32h34.7c17.5,0,29.5,9.5,29.5,26.2c0,9.2-4.7,17.8-12.2,22.3v0.2c0.2,0.4,1.8,2.5,3.5,5.5l14,25.6h-26.2
		l-12.4-25h-6.7v25H462V32z M493.3,68.2c5.4,0,8.5-3.2,8.5-8.5c0-5-2.1-8.3-9.4-8.3h-6.3v16.7H493.3z"/>
	<path class="st2" d="M537.4,32h32.4c24.7,0,40.4,14.6,40.4,39.7c0,25.1-15.7,40.1-40.4,40.1h-32.4V32z M568.3,92.2
		c10.8,0,17.2-6.9,17.2-20.4c0-13.4-6.7-20.1-17.2-20.1h-6.7v40.5H568.3z"/>
	<path class="st2" d="M710.7,32h23l19.7,32.7c3.3,5.5,5.7,12.2,5.7,12.2h0.4c0,0-0.9-7.1-0.9-12.2V32h23.3v79.8h-23.4l-19.8-34.3
		c-2.9-4.8-5.7-12.1-5.7-12.1h-0.4c0,0,0.9,7,0.9,12.1v34.3h-22.8V32z"/>
	<path class="st2" d="M286.8,130.2h26.3l10,32.2c1.6,5.1,3.3,12.8,3.3,12.8h0.4c0,0,1.7-7.7,3.3-12.8l10-32.2h26.2l5.9,79.8h-22.4
		l-2.2-33.3c-0.4-6,0-12.8,0-12.8h-0.4c0,0-2,7.8-3.7,12.8l-7.3,22.7H317l-7.4-22.7c-1.6-5-3.6-12.8-3.6-12.8h-0.4
		c0,0,0.3,6.8-0.1,12.8l-2.1,33.3h-22.7L286.8,130.2z"/>
	<path class="st2" d="M421,128.3c26.2,0,43.7,17.9,43.7,41.6c0,24.3-17.5,42.6-43.7,42.6c-26.2,0-43.7-18.3-43.7-42.6
		C377.2,146.1,394.8,128.3,421,128.3z M421,190.7c10.7,0,18.4-8.4,18.4-20.8c0-11.8-7.7-19.8-18.4-19.8s-18.4,8-18.4,19.8
		C402.5,182.2,410.3,190.7,421,190.7z"/>
	<path class="st2" d="M411.4,30.5c26.2,0,43.7,17.9,43.7,41.6c0,24.3-17.5,42.6-43.7,42.6c-26.2,0-43.7-18.3-43.7-42.6
		C367.7,48.4,385.2,30.5,411.4,30.5z M411.4,92.9c10.7,0,18.4-8.4,18.4-20.8c0-11.8-7.7-19.8-18.4-19.8s-18.4,8-18.4,19.8
		C392.9,84.5,400.7,92.9,411.4,92.9z"/>
	<path class="st2" d="M659.7,30.5c26.2,0,43.7,17.9,43.7,41.6c0,24.3-17.5,42.6-43.7,42.6c-26.2,0-43.7-18.3-43.7-42.6
		C616,48.4,633.5,30.5,659.7,30.5z M659.7,92.9c10.7,0,18.4-8.4,18.4-20.8c0-11.8-7.7-19.8-18.4-19.8c-10.7,0-18.4,8-18.4,19.8
		C641.3,84.5,649,92.9,659.7,92.9z"/>
	<path class="st2" d="M513.2,128.3c26.2,0,43.7,17.9,43.7,41.6c0,24.3-17.5,42.6-43.7,42.6c-26.2,0-43.7-18.3-43.7-42.6
		C469.4,146.1,487,128.3,513.2,128.3z M513.2,190.7c10.7,0,18.4-8.4,18.4-20.8c0-11.8-7.7-19.8-18.4-19.8c-10.7,0-18.4,8-18.4,19.8
		C494.7,182.2,502.5,190.7,513.2,190.7z"/>
	<path class="st2" d="M565,130.2h32.4c24.7,0,40.4,14.6,40.4,39.7c0,25.1-15.7,40.1-40.4,40.1H565V130.2z M595.9,190.4
		c10.8,0,17.2-6.9,17.2-20.4c0-13.4-6.7-20.1-17.2-20.1h-6.7v40.5H595.9z"/>
	<path class="st2" d="M659.1,178.5l-26.3-48.2h25.9l7.7,16.5c2.2,5,4.6,12.1,4.6,12.1h0.4c0,0,2.3-7,4.7-12.1l7.5-16.5h26
		l-26.3,48.2v31.6h-24.1V178.5z"/>
</g>
</svg>
